 <svg version="1.0" xmlns="http://www.w3.org/2000/svg"  width="300.000000pt" height="309.000000pt" viewBox="0 0 300.000000 309.000000"  preserveAspectRatio="xMidYMid meet">  <g transform="translate(0.000000,309.000000) scale(0.100000,-0.100000)" fill="#000000" stroke="none"> <path d="M1171 2679 c-438 -49 -847 -324 -927 -624 -26 -98 -12 -227 30 -274 28 -31 106 -63 168 -69 58 -5 61 -4 53 14 -17 39 -18 212 0 289 54 243 253 438 525 515 93 27 281 37 361 21 112 -23 182 -92 216 -213 20 -75 28 -302 14 -428 -28 -250 -96 -495 -196 -703 -34 -72 -102 -188 -132 -226 -1 -2 -11 3 -20 11 -57 50 -171 74 -273 59 -37 -6 -75 -14 -84 -17 -14 -5 -16 8 -16 113 0 203 36 417 110 647 89 276 183 460 292 570 38 38 66 71 63 74 -2 3 -49 7 -102 10 -111 5 -189 -15 -274 -69 -275 -175 -517 -790 -496 -1259 8 -177 40 -279 113 -360 98 -109 235 -157 419 -147 61 3 133 13 160 21 28 9 51 16 52 16 1 0 7 -17 14 -37 25 -79 68 -162 105 -202 58 -65 103 -84 210 -89 147 -7 206 29 282 169 l30 57 -87 4 c-127 6 -186 41 -283 166 l-41 52 29 22 c64 47 166 160 217 239 179 275 277 612 278 949 0 378 -130 597 -404 678 -95 27 -269 37 -406 21z m385 -59 c256 -66 383 -275 384 -634 0 -240 -52 -490 -149 -706 -77 -174 -134 -260 -253 -385 -60 -62 -108 -120 -108 -130 0 -41 132 -186 202 -221 26 -13 71 -27 99 -32 29 -4 54 -12 56 -18 7 -20 -56 -92 -99 -113 -31 -15 -63 -21 -109 -21 -150 0 -227 63 -294 242 -30 81 -38 84 -159 65 -126 -21 -190 -21 -277 -3 -124 27 -224 97 -269 190 -92 191 -75 539 45 902 131 399 332 632 563 651 39 3 72 3 72 -1 0 -4 -20 -33 -43 -64 -192 -251 -350 -739 -364 -1124 -6 -167 -2 -194 32 -210 29 -13 31 -25 9 -49 -23 -26 -3 -78 46 -123 42 -38 90 -52 145 -42 40 8 95 50 95 73 0 31 -53 86 -109 112 l-56 26 57 3 c44 2 72 -3 120 -23 99 -41 95 -41 136 2 92 96 228 419 282 668 62 290 66 588 9 741 -27 71 -86 135 -156 170 -51 24 -72 28 -175 32 -133 5 -213 -7 -333 -47 -162 -54 -310 -166 -399 -300 -82 -124 -106 -201 -113 -363 -6 -127 -6 -128 -30 -128 -13 0 -42 9 -64 21 -60 30 -83 88 -76 191 16 239 253 471 607 596 228 80 488 100 676 52z m-521 -1671 c41 -10 115 -66 115 -87 0 -10 -74 -32 -110 -32 -35 0 -78 28 -105 67 -31 47 -31 51 3 56 49 7 53 7 97 -4z"/> <path d="M2396 2575 c-68 -24 -124 -94 -139 -173 -26 -134 103 -267 241 -248 182 25 254 237 123 367 -65 66 -141 84 -225 54z m155 -50 c62 -33 107 -123 94 -188 -19 -88 -85 -140 -176 -140 -104 0 -169 66 -169 173 0 28 6 63 14 78 45 87 151 121 237 77z"/> <path d="M2195 1988 c-2 -7 -11 -47 -19 -88 -8 -41 -45 -214 -81 -385 -96 -450 -107 -517 -102 -611 7 -132 52 -210 152 -262 43 -22 63 -26 140 -27 79 0 96 3 140 27 82 43 141 123 152 206 l5 38 -68 -4 c-59 -3 -73 -1 -96 18 -25 19 -28 28 -28 83 0 34 9 105 21 157 11 52 31 147 44 210 13 63 49 232 79 375 31 143 56 263 56 268 0 4 -88 7 -195 7 -148 0 -197 -3 -200 -12z m339 -36 c4 -7 -61 -331 -154 -765 -17 -76 -30 -168 -30 -204 0 -63 2 -67 39 -104 31 -32 46 -39 77 -39 61 0 69 -10 46 -56 -24 -46 -63 -85 -112 -110 -52 -26 -181 -25 -236 4 -97 50 -140 146 -131 291 3 50 37 239 82 446 42 198 83 393 91 433 23 119 12 112 179 112 79 0 146 -4 149 -8z"/> </g> </svg> 